<svg xmlns="http://www.w3.org/2000/svg" xmlns:xlink="http://www.w3.org/1999/xlink" width="500" zoomAndPan="magnify" viewBox="0 0 375 374.999991" height="500" preserveAspectRatio="xMidYMid meet" version="1.0"><defs><clipPath id="266cf88f9b"><path d="M 9.652344 198 L 364 198 L 364 368.210938 L 9.652344 368.210938 Z M 9.652344 198 " clip-rule="nonzero"/></clipPath><clipPath id="c9182e8920"><path d="M 365 217 L 365.152344 217 L 365.152344 218 L 365 218 Z M 365 217 " clip-rule="nonzero"/></clipPath><clipPath id="ef1b268225"><path d="M 155 6.710938 L 172 6.710938 L 172 24 L 155 24 Z M 155 6.710938 " clip-rule="nonzero"/></clipPath></defs><path fill="#0a4570" d="M 94.933594 203.894531 C 98.128906 227.003906 105.480469 249.769531 118.292969 269.378906 C 119.3125 271.734375 123.625 275.402344 123.082031 277.605469 C 120.480469 284.195312 112.859375 286.082031 107.0625 288.878906 C 76.976562 304.003906 86.917969 330.949219 119.648438 324.34375 C 126.375 323.003906 128.066406 327.25 134.445312 324.71875 C 139.417969 322.753906 146.042969 334.460938 151.007812 332.484375 C 167.203125 331.664062 181.988281 345.898438 195.523438 352.960938 C 196.078125 347.910156 194.347656 335.089844 214.828125 330.359375 C 223.894531 328.269531 229.3125 311.820312 243.894531 309.890625 C 249.335938 280.179688 199.304688 239.117188 168.796875 223.445312 C 128.4375 202.71875 166.8125 93.910156 100.496094 84.59375 C 81.640625 91.945312 82.367188 115.5 86.554688 132.117188 C 91.683594 158.398438 89.8125 177.617188 94.941406 203.894531 Z M 94.933594 203.894531 " fill-opacity="1" fill-rule="nonzero"/><path fill="#0086ff" d="M 151.636719 298.460938 C 144.78125 306.511719 113.515625 325.332031 88.085938 313.398438 C 86.589844 310.113281 86.417969 306.308594 87.523438 302.753906 C 92.570312 284.167969 74.875 285.433594 76.28125 270.371094 C 76.367188 269.320312 75.984375 268.28125 75.234375 267.542969 C 65.910156 258.730469 72.304688 255.980469 72.210938 247.058594 C 70.6875 234.234375 56.234375 235.320312 48.558594 227.0625 C 38.171875 212.164062 77.757812 196.476562 69.695312 155.050781 C 66.4375 134.339844 72.992188 113.261719 87.019531 97.746094 C 164.847656 143.164062 90.1875 181.222656 99.421875 214.53125 C 109.382812 250.457031 202.347656 238.988281 151.636719 298.460938 L 151.632812 298.460938 Z M 151.636719 298.460938 " fill-opacity="1" fill-rule="nonzero"/><path fill="#2fc0f2" d="M 210.699219 318.488281 L 146.457031 330.359375 L 129.304688 322.3125 C 110.527344 331.132812 83.167969 324.34375 87.523438 302.757812 C 92.578125 284.195312 74.871094 285.425781 76.28125 270.375 C 75.277344 264.425781 67.039062 263.257812 71.160156 253.480469 C 77.53125 237.066406 57.425781 235.554688 48.558594 227.066406 C 38 212.511719 77.703125 196.574219 69.695312 155.050781 C 66.433594 134.335938 72.992188 113.261719 87.023438 97.746094 L 88.769531 98.78125 C 102.066406 95.683594 130.882812 115.703125 127.601562 162.324219 C 124.554688 227.175781 135.644531 229.324219 170.753906 245.019531 C 195.984375 256.300781 216.140625 286.058594 210.699219 318.484375 Z M 210.699219 318.488281 " fill-opacity="1" fill-rule="nonzero"/><path fill="#0a4570" d="M 191.3125 321.1875 C 190.683594 337.222656 186.996094 350.726562 187.898438 352.953125 C 188.257812 353.847656 188.53125 354.65625 188.730469 355.378906 C 184.894531 356.683594 181.078125 357.878906 177.289062 358.972656 C 170.363281 356.015625 162.960938 351.132812 162.960938 350.839844 C 154.410156 336.664062 152.355469 333.402344 146.574219 330.164062 C 143.09375 328.210938 138.261719 326.273438 129.835938 321.96875 C 129.835938 321.96875 177.460938 307.695312 185.945312 287.695312 C 190.75 298.203125 191.742188 310.28125 191.3125 321.1875 Z M 191.3125 321.1875 " fill-opacity="0.3" fill-rule="nonzero"/><path fill="#ffffff" d="M 151.636719 298.460938 C 144.65625 308.203125 107.722656 324.867188 88.085938 313.398438 C 86.589844 310.113281 86.417969 306.308594 87.523438 302.753906 C 92.597656 284.273438 74.875 285.386719 76.28125 270.371094 C 76.367188 269.320312 75.984375 268.28125 75.234375 267.542969 C 65.90625 258.71875 72.304688 255.988281 72.210938 247.058594 C 70.6875 234.234375 56.234375 235.320312 48.558594 227.0625 C 38.164062 212.203125 77.761719 196.449219 69.695312 155.050781 C 66.421875 134.308594 73.050781 113.175781 87.019531 97.746094 C 164.847656 143.164062 90.1875 181.222656 99.421875 214.53125 C 109.382812 250.457031 202.347656 238.988281 151.636719 298.460938 Z M 151.636719 298.460938 " fill-opacity="0.4" fill-rule="nonzero"/><path fill="#ffffff" d="M 124.171875 305.410156 C 113.945312 315.980469 103.050781 320.964844 88.085938 313.402344 C 86.589844 310.117188 86.417969 306.3125 87.523438 302.757812 C 92.574219 284.171875 74.875 285.441406 76.28125 270.375 C 76.367188 269.324219 75.984375 268.285156 75.234375 267.546875 C 65.863281 258.621094 72.328125 256.035156 72.210938 247.0625 C 70.925781 234.476562 55.703125 234.96875 48.558594 227.066406 C 44.96875 222.128906 47.191406 217.019531 51.371094 210.796875 C 87.960938 165.359375 57.148438 157.492188 75.34375 115.382812 C 126.050781 156.125 63.460938 190.816406 71.960938 221.472656 C 81.925781 257.402344 174.894531 245.9375 124.171875 305.40625 Z M 124.171875 305.410156 " fill-opacity="0.3" fill-rule="nonzero"/><path fill="#ffffff" d="M 60.414062 234.269531 C 48.636719 229.589844 41.761719 223.726562 51.375 210.792969 C 49.601562 219.75 53.359375 228.53125 60.414062 234.269531 Z M 60.414062 234.269531 " fill-opacity="0.2" fill-rule="nonzero"/><path fill="#ffffff" d="M 69.695312 155.050781 C 68.46875 147.246094 68.636719 139.378906 70.074219 131.769531 C 77.820312 144.839844 75.726562 157.269531 70.683594 169.132812 C 70.945312 164.789062 70.683594 160.109375 69.699219 155.054688 Z M 69.695312 155.050781 " fill-opacity="0.39" fill-rule="nonzero"/><path fill="#0a4570" d="M 103.988281 305.410156 C 99.710938 309.449219 95.835938 312.8125 91.609375 314.882812 C 90.480469 314.457031 89.308594 313.964844 88.089844 313.402344 C 86.59375 310.117188 86.421875 306.3125 87.527344 302.757812 C 92.578125 284.171875 74.878906 285.441406 76.289062 270.375 C 76.375 269.324219 75.988281 268.285156 75.238281 267.546875 C 63.472656 257.59375 77.480469 250.425781 69.664062 240.523438 C 97.554688 255.941406 142.757812 259.945312 103.988281 305.414062 Z M 103.988281 305.410156 " fill-opacity="0.05" fill-rule="nonzero"/><path fill="#0a4570" d="M 321.878906 169.371094 C 321.835938 171.71875 321.738281 174.058594 321.570312 176.414062 C 319.054688 208.074219 307.1875 235.363281 289.550781 263.046875 C 285.296875 271.308594 277.191406 275.875 277.480469 290.335938 L 273.601562 291.042969 C 272.984375 273.882812 282.429688 268.980469 287.609375 258.746094 C 299.277344 240.0625 307.457031 222.785156 312.945312 202.859375 C 313.382812 201.253906 313.785156 199.65625 314.160156 198.066406 C 317.375 184.382812 318.667969 171.003906 317.542969 157.207031 C 311.605469 75.988281 215.601562 32.664062 144.296875 59.800781 C 107.421875 74.785156 64.75 108.9375 71.46875 153.554688 C 76.777344 187.054688 59.621094 200.777344 48.804688 219.0625 C 45.417969 233.203125 73.664062 230.203125 74.171875 246.828125 C 74.816406 255.339844 67.863281 258.203125 76.617188 266.132812 C 80.675781 271.316406 75.105469 276.21875 83.683594 282.613281 C 96.191406 293.65625 86.054688 303.132812 89.882812 312.582031 C 103.394531 334.472656 121.863281 316.425781 139.949219 325.125 C 139.949219 325.125 154.71875 332.046875 154.71875 332.046875 L 153.050781 335.617188 C 153.050781 335.617188 138.273438 328.695312 138.273438 328.695312 C 132.976562 326.210938 126.902344 325.589844 121.171875 326.941406 C 106.082031 330.554688 93.148438 326.351562 86.292969 314.210938 C 81.667969 304.695312 91.574219 294.292969 81.324219 285.769531 C 76.941406 282.5 74.578125 278.226562 74.277344 273.066406 C 74 271.777344 74.820312 270.039062 73.851562 268.949219 C 69.832031 264.96875 67.484375 261.359375 68.28125 256.109375 C 68.796875 253.320312 70.828125 250.210938 70.257812 247.289062 C 69.050781 232.742188 39.164062 235.5625 45.183594 217.496094 C 46.511719 214.417969 48.980469 211.09375 51.84375 207.234375 C 85.539062 170.34375 49.160156 135.757812 85.558594 96.421875 C 113.609375 65.980469 146.792969 48.605469 186.933594 47.707031 C 255.921875 45.316406 324.265625 96.585938 321.871094 169.367188 Z M 321.878906 169.371094 " fill-opacity="1" fill-rule="nonzero"/><path fill="#0086ff" d="M 245.992188 269.769531 C 245.992188 269.769531 218.515625 248.429688 218.515625 248.429688 C 218.5 248.429688 186.28125 199.308594 186.25 199.277344 C 179.804688 182.324219 168.070312 147.648438 163.113281 130.253906 L 161.648438 130.058594 L 162.625 129.355469 L 138.359375 94.96875 L 116.199219 72.503906 L 117.5 71.59375 L 139.574219 93.957031 C 139.617188 94.011719 163.855469 128.371094 163.902344 128.429688 L 204.777344 98.9375 L 209.441406 135.285156 L 217.128906 161.632812 C 228.339844 145.972656 249.726562 113.210938 259.804688 96.703125 L 289.046875 134.023438 L 269.53125 153.441406 L 248.050781 183.042969 L 276.511719 212.066406 C 276.511719 212.066406 245.996094 269.769531 245.992188 269.769531 Z M 219.6875 247.347656 L 245.476562 267.375 L 274.574219 212.355469 L 245.992188 183.207031 L 268.371094 152.378906 L 286.945312 133.902344 L 259.945312 99.441406 C 249.753906 116.238281 227.953125 149.242188 216.546875 165.273438 L 208.050781 136.164062 L 164.835938 130.480469 C 169.714844 147.636719 181.304688 181.839844 187.671875 198.566406 C 187.671875 198.566406 219.691406 247.34375 219.691406 247.34375 Z M 165.789062 129.019531 L 207.753906 134.539062 L 203.550781 101.769531 Z M 165.789062 129.019531 " fill-opacity="1" fill-rule="nonzero"/><path fill="#0086ff" d="M 217.886719 164.238281 L 171.980469 164.238281 L 209.082031 134.085938 L 217.882812 164.238281 Z M 176.425781 162.664062 L 215.78125 162.664062 L 208.238281 136.8125 Z M 176.425781 162.664062 " fill-opacity="1" fill-rule="nonzero"/><path fill="#0086ff" d="M 227.53125 213.394531 L 185.609375 199.304688 L 217.289062 161.691406 L 227.527344 213.394531 Z M 188.304688 198.542969 L 225.460938 211.03125 L 216.382812 165.21875 L 188.308594 198.546875 Z M 188.304688 198.542969 " fill-opacity="1" fill-rule="nonzero"/><path fill="#0086ff" d="M 247.070312 183.917969 L 246.960938 182.339844 L 295.054688 179.019531 L 268.378906 153.503906 L 269.464844 152.367188 L 298.722656 180.347656 Z M 247.070312 183.917969 " fill-opacity="1" fill-rule="nonzero"/><path fill="#0086ff" d="M 162.945312 129.425781 L 171.390625 74.476562 L 172.949219 74.71875 L 164.503906 129.667969 Z M 162.945312 129.425781 " fill-opacity="1" fill-rule="nonzero"/><path fill="#0086ff" d="M 292.160156 278.949219 L 245.132812 269.246094 L 226.679688 215.191406 L 219.871094 248.042969 L 218.328125 247.71875 L 225.933594 211.023438 L 221.878906 210.867188 L 245.832031 183.289062 L 214.792969 163.054688 L 266.957031 152.519531 L 238.359375 132.613281 L 208.757812 136.222656 L 208.566406 134.65625 L 238.769531 130.96875 L 270.886719 153.328125 L 218.875 163.828125 L 248.207031 182.945312 L 225.222656 209.410156 L 226.261719 209.449219 L 226.308594 209.210938 L 226.390625 209.453125 L 276.167969 211.429688 L 292.160156 278.933594 Z M 246.332031 267.886719 L 290.050781 276.90625 L 274.90625 212.96875 L 226.933594 211.070312 Z M 246.332031 267.886719 " fill-opacity="1" fill-rule="nonzero"/><path fill="#0086ff" d="M 329.296875 221.019531 L 274.203125 212.8125 L 296.058594 179.519531 L 287.335938 134.726562 L 238.253906 132.574219 C 222.589844 117.578125 189.585938 88.707031 172.363281 75.753906 L 172.210938 75.988281 L 171.953125 75.632812 L 137.828125 96.066406 L 149.371094 41.613281 L 172.132812 73.179688 L 195.425781 36.589844 L 227.351562 72.761719 L 205.246094 100.265625 L 238.894531 131.019531 L 288.648438 133.195312 L 297.734375 179.835938 L 276.882812 211.601562 L 329.535156 219.445312 C 329.535156 219.445312 329.308594 221.003906 329.300781 221.011719 Z M 173.203125 74.417969 L 203.101562 98.496094 L 195.027344 40.140625 Z M 196.65625 40.386719 L 204.683594 98.4375 L 225.273438 72.820312 L 196.652344 40.386719 Z M 150.164062 45.429688 L 140.105469 92.859375 L 171.019531 74.351562 L 150.164062 45.425781 Z M 150.164062 45.429688 " fill-opacity="1" fill-rule="nonzero"/><path fill="#0a4570" d="M 312.933594 106.292969 L 312.140625 105.25 L 314.699219 102.519531 C 315.367188 103.140625 316.898438 104.578125 317.578125 105.214844 C 317.285156 105.527344 314.496094 108.519531 314.125 108.914062 Z M 312.933594 106.292969 " fill-opacity="0.4" fill-rule="nonzero"/><path fill="#0a4570" d="M 333.683594 172.277344 C 333.714844 172.175781 333.578125 171.335938 333.5625 171.21875 L 335.972656 173.328125 L 333.644531 173.824219 Z M 333.683594 172.277344 " fill-opacity="0.4" fill-rule="nonzero"/><path fill="#0086ff" d="M 328.800781 220.730469 L 295.476562 179.179688 L 330.011719 171.78125 L 286.859375 134.023438 L 314.753906 104.191406 L 315.902344 105.269531 L 289.121094 133.910156 L 333.414062 172.660156 L 298.304688 180.1875 L 330.023438 219.75 Z M 328.800781 220.730469 " fill-opacity="1" fill-rule="nonzero"/><path fill="#0086ff" d="M 288.03125 134.753906 L 287.945312 133.183594 L 326.234375 131.058594 L 326.320312 132.628906 Z M 288.03125 134.753906 " fill-opacity="1" fill-rule="nonzero"/><path fill="#0086ff" d="M 225.835938 73.425781 L 226.785156 72.167969 L 260.34375 97.445312 L 259.394531 98.703125 Z M 225.835938 73.425781 " fill-opacity="1" fill-rule="nonzero"/><path fill="#0086ff" d="M 204.117188 99.5625 L 258.941406 96.609375 L 259.027344 98.183594 L 204.203125 101.132812 Z M 204.117188 99.5625 " fill-opacity="1" fill-rule="nonzero"/><path fill="#0a4570" d="M 261.839844 53.625 L 261.839844 59.640625 L 258.292969 57.140625 L 257.894531 57.363281 L 257.894531 53.625 Z M 261.839844 53.625 " fill-opacity="0.4" fill-rule="nonzero"/><path fill="#0086ff" d="M 259.082031 54.816406 L 260.65625 54.816406 L 260.65625 98.074219 L 259.082031 98.074219 Z M 259.082031 54.816406 " fill-opacity="1" fill-rule="nonzero"/><path fill="#0a4570" d="M 297.359375 81.296875 C 297.359375 81.296875 294.605469 82.6875 294.605469 82.691406 L 293.199219 81.699219 L 293.597656 78.777344 C 294.027344 78.558594 295.164062 77.984375 295.574219 77.777344 C 296.09375 78.804688 296.832031 80.265625 297.359375 81.296875 Z M 297.359375 81.296875 " fill-opacity="0.4" fill-rule="nonzero"/><path fill="#0086ff" d="M 259.507812 97.382812 L 295.050781 79.382812 L 295.761719 80.789062 L 260.21875 98.785156 Z M 259.507812 97.382812 " fill-opacity="1" fill-rule="nonzero"/><path fill="#0a4570" d="M 297.359375 81.296875 C 297.359375 81.296875 294.605469 82.6875 294.605469 82.691406 L 293.199219 81.699219 C 293.335938 80.722656 293.671875 78.246094 293.804688 77.300781 L 294.941406 78.101562 L 295.578125 77.78125 L 296.1875 78.980469 L 296.878906 79.46875 L 296.617188 79.835938 C 296.617188 79.835938 297.359375 81.300781 297.359375 81.300781 Z M 297.359375 81.296875 " fill-opacity="0.4" fill-rule="nonzero"/><path fill="#0a4570" d="M 317.035156 105.785156 L 314.117188 108.90625 C 313.757812 108.078125 312.800781 105.851562 312.136719 105.246094 L 314.691406 102.511719 C 315.109375 102.882812 316.058594 103.777344 316.339844 104.25 C 316.339844 104.25 317.035156 105.785156 317.035156 105.785156 Z M 317.035156 105.785156 " fill-opacity="0.4" fill-rule="nonzero"/><path fill="#0086ff" d="M 291.753906 278.378906 L 290.453125 277.484375 L 329.707031 220.5625 L 330.921875 172.269531 L 324.875 129.761719 L 313.953125 105.675781 L 295.921875 82.058594 L 288.761719 134.070312 L 287.195312 133.855469 L 294.875 78.085938 C 294.914062 78.167969 315.34375 104.84375 315.34375 104.945312 C 315.34375 104.945312 326.402344 129.3125 326.402344 129.3125 C 326.433594 129.378906 332.464844 172.085938 332.496094 172.171875 C 332.492188 172.230469 331.269531 221.003906 331.265625 221.070312 C 331.195312 221.164062 291.839844 278.246094 291.742188 278.375 Z M 291.753906 278.378906 " fill-opacity="1" fill-rule="nonzero"/><path fill="#0a4570" d="M 261.839844 54.8125 L 261.839844 59.640625 L 258.292969 57.140625 L 257.894531 57.363281 L 257.894531 53.625 L 260.15625 53.625 Z M 261.839844 54.8125 " fill-opacity="0.4" fill-rule="nonzero"/><path fill="#0a4570" d="M 296.875 79.464844 L 296.609375 79.832031 C 296.609375 79.832031 294.605469 82.691406 294.601562 82.691406 L 293.195312 81.699219 C 293.332031 80.722656 293.667969 78.246094 293.800781 77.300781 C 294.699219 77.929688 295.988281 78.835938 296.878906 79.464844 Z M 296.875 79.464844 " fill-opacity="0.4" fill-rule="nonzero"/><path fill="#0086ff" d="M 294.3125 81.042969 L 258.363281 55.742188 L 226.695312 73.484375 L 225.925781 72.105469 L 258.457031 53.882812 L 295.222656 79.75 Z M 294.3125 81.042969 " fill-opacity="1" fill-rule="nonzero"/><path fill="#0086ff" d="M 116.554688 72.867188 L 105.617188 64.75 C 105.617188 64.75 149.53125 42.757812 149.53125 42.757812 L 195.574219 37.105469 C 195.8125 37.105469 258.394531 54.042969 258.613281 54.054688 L 258.207031 55.582031 L 195.460938 38.714844 L 149.992188 44.296875 L 108.617188 65.015625 L 117.496094 71.605469 L 116.554688 72.871094 Z M 116.554688 72.867188 " fill-opacity="1" fill-rule="nonzero"/><path fill="#0a4570" d="M 118.496094 323.488281 C 140.621094 317.121094 164.015625 310 181.519531 294.382812 C 164.722656 311.121094 141.539062 319.601562 119.550781 327.285156 L 118.492188 323.488281 Z M 118.496094 323.488281 " fill-opacity="1" fill-rule="nonzero"/><g clip-path="url(#266cf88f9b)"><path fill="#2fc0f2" d="M 364 218.730469 C 346.28125 243.636719 326.414062 265.863281 306.09375 284.332031 C 267.71875 319.164062 227.136719 342.375 188.730469 355.378906 C 184.894531 356.683594 181.078125 357.878906 177.289062 358.972656 C 54.707031 394.472656 -40.636719 324.878906 38.882812 198.078125 C -20.609375 310.03125 52.59375 342.746094 146.574219 330.164062 C 161.128906 328.214844 176.179688 325.179688 191.3125 321.1875 C 260.257812 302.988281 330.921875 264.863281 364 218.730469 Z M 364 218.730469 " fill-opacity="1" fill-rule="nonzero"/></g><g clip-path="url(#c9182e8920)"><path fill="#0a4570" d="M 365.089844 217.195312 C 365.089844 217.195312 365.082031 217.210938 365.078125 217.214844 C 365.082031 217.210938 365.082031 217.199219 365.085938 217.195312 Z M 365.089844 217.195312 " fill-opacity="0.3" fill-rule="nonzero"/></g><path fill="#fe2860" d="M 163.710938 120.179688 C 176.011719 120.390625 176.007812 138.695312 163.710938 138.902344 C 151.410156 138.695312 151.417969 120.390625 163.710938 120.179688 Z M 163.710938 120.179688 " fill-opacity="0.2" fill-rule="nonzero"/><path fill="#fe2860" d="M 163.710938 136.53125 C 154.570312 136.480469 154.570312 122.589844 163.710938 122.539062 C 172.855469 122.589844 172.855469 136.480469 163.710938 136.53125 Z M 163.710938 136.53125 " fill-opacity="0.4" fill-rule="nonzero"/><path fill="#fe2860" d="M 163.710938 134.167969 C 157.707031 134.25 157.714844 124.828125 163.710938 124.914062 C 169.710938 124.832031 169.710938 134.253906 163.710938 134.167969 Z M 163.710938 134.167969 " fill-opacity="0.6" fill-rule="nonzero"/><path fill="#ffffff" d="M 163.710938 131.800781 C 160.777344 131.84375 160.777344 127.234375 163.710938 127.277344 C 166.648438 127.234375 166.648438 131.84375 163.710938 131.800781 Z M 163.710938 131.800781 " fill-opacity="1" fill-rule="nonzero"/><path fill="#fe2860" d="M 208.65625 130.820312 C 214.660156 130.734375 214.660156 140.164062 208.65625 140.074219 C 202.652344 140.160156 202.652344 130.730469 208.65625 130.820312 Z M 208.65625 130.820312 " fill-opacity="0.2" fill-rule="nonzero"/><path fill="#fe2860" d="M 208.65625 138.910156 C 204.167969 138.976562 204.167969 131.929688 208.65625 131.992188 C 213.144531 131.929688 213.144531 138.976562 208.65625 138.910156 Z M 208.65625 138.910156 " fill-opacity="0.4" fill-rule="nonzero"/><path fill="#fe2860" d="M 208.65625 137.738281 C 205.691406 137.78125 205.691406 133.117188 208.65625 133.160156 C 211.625 133.117188 211.625 137.78125 208.65625 137.738281 Z M 208.65625 137.738281 " fill-opacity="0.6" fill-rule="nonzero"/><path fill="#ffffff" d="M 208.65625 136.570312 C 207.203125 136.589844 207.203125 134.3125 208.65625 134.332031 C 210.109375 134.3125 210.109375 136.589844 208.65625 136.570312 Z M 208.65625 136.570312 " fill-opacity="1" fill-rule="nonzero"/><path fill="#fe2860" d="M 216.832031 158.597656 C 223.578125 158.628906 223.578125 168.882812 216.832031 168.914062 C 210.085938 168.882812 210.085938 158.628906 216.832031 158.597656 Z M 216.832031 158.597656 " fill-opacity="0.2" fill-rule="nonzero"/><path fill="#fe2860" d="M 216.832031 167.613281 C 211.832031 167.679688 211.832031 159.832031 216.832031 159.898438 C 221.832031 159.832031 221.832031 167.679688 216.832031 167.613281 Z M 216.832031 167.613281 " fill-opacity="0.4" fill-rule="nonzero"/><path fill="#fe2860" d="M 216.832031 166.308594 C 213.523438 166.351562 213.523438 161.160156 216.832031 161.207031 C 220.140625 161.164062 220.140625 166.359375 216.832031 166.308594 Z M 216.832031 166.308594 " fill-opacity="0.6" fill-rule="nonzero"/><path fill="#ffffff" d="M 216.832031 165.003906 C 215.210938 165.027344 215.210938 162.488281 216.832031 162.511719 C 218.445312 162.488281 218.445312 165.027344 216.832031 165.003906 Z M 216.832031 165.003906 " fill-opacity="1" fill-rule="nonzero"/><path fill="#fe2860" d="M 173.066406 159.175781 C 179.003906 159.089844 179.007812 168.417969 173.066406 168.332031 C 167.132812 168.417969 167.132812 159.089844 173.066406 159.175781 Z M 173.066406 159.175781 " fill-opacity="0.2" fill-rule="nonzero"/><path fill="#fe2860" d="M 173.066406 167.175781 C 168.628906 167.234375 168.628906 160.277344 173.066406 160.335938 C 177.503906 160.269531 177.503906 167.242188 173.066406 167.175781 Z M 173.066406 167.175781 " fill-opacity="0.4" fill-rule="nonzero"/><path fill="#fe2860" d="M 173.066406 166.019531 C 170.132812 166.058594 170.132812 161.453125 173.066406 161.492188 C 176.003906 161.453125 176.003906 166.058594 173.066406 166.019531 Z M 173.066406 166.019531 " fill-opacity="0.6" fill-rule="nonzero"/><path fill="#ffffff" d="M 173.066406 164.863281 C 171.628906 164.882812 171.628906 162.628906 173.066406 162.648438 C 174.507812 162.628906 174.507812 164.882812 173.066406 164.863281 Z M 173.066406 164.863281 " fill-opacity="1" fill-rule="nonzero"/><path fill="#fe2860" d="M 268.925781 147.273438 C 276.324219 147.304688 276.324219 158.566406 268.925781 158.597656 C 261.523438 158.566406 261.523438 147.304688 268.925781 147.273438 Z M 268.925781 147.273438 " fill-opacity="0.2" fill-rule="nonzero"/><path fill="#fe2860" d="M 268.925781 157.167969 C 263.4375 157.242188 263.4375 148.628906 268.925781 148.703125 C 274.414062 148.628906 274.414062 157.242188 268.925781 157.167969 Z M 268.925781 157.167969 " fill-opacity="0.4" fill-rule="nonzero"/><path fill="#fe2860" d="M 268.925781 155.738281 C 265.292969 155.785156 265.292969 150.085938 268.925781 150.140625 C 272.554688 150.089844 272.558594 155.792969 268.925781 155.738281 Z M 268.925781 155.738281 " fill-opacity="0.6" fill-rule="nonzero"/><path fill="#ffffff" d="M 268.925781 154.308594 C 267.152344 154.332031 267.152344 151.542969 268.925781 151.570312 C 270.699219 151.542969 270.699219 154.332031 268.925781 154.308594 Z M 268.925781 154.308594 " fill-opacity="1" fill-rule="nonzero"/><path fill="#fe2860" d="M 287.988281 123.851562 C 301.28125 124.078125 301.28125 143.859375 287.988281 144.082031 C 274.699219 143.859375 274.699219 124.078125 287.988281 123.851562 Z M 287.988281 123.851562 " fill-opacity="0.2" fill-rule="nonzero"/><path fill="#fe2860" d="M 287.988281 141.523438 C 278.058594 141.347656 278.058594 126.578125 287.988281 126.402344 C 297.917969 126.578125 297.917969 141.347656 287.988281 141.523438 Z M 287.988281 141.523438 " fill-opacity="0.4" fill-rule="nonzero"/><path fill="#fe2860" d="M 287.988281 138.96875 C 281.453125 138.9375 281.453125 129 287.988281 128.96875 C 294.527344 129 294.527344 138.9375 287.988281 138.96875 Z M 287.988281 138.96875 " fill-opacity="0.6" fill-rule="nonzero"/><path fill="#ffffff" d="M 287.988281 136.414062 C 284.816406 136.457031 284.8125 131.472656 287.988281 131.515625 C 291.164062 131.472656 291.164062 136.457031 287.988281 136.414062 Z M 287.988281 136.414062 " fill-opacity="1" fill-rule="nonzero"/><path fill="#fe2860" d="M 332.277344 167.441406 C 338.816406 167.464844 338.816406 177.414062 332.277344 177.441406 C 325.742188 177.414062 325.742188 167.464844 332.277344 167.441406 Z M 332.277344 167.441406 " fill-opacity="0.2" fill-rule="nonzero"/><path fill="#fe2860" d="M 332.277344 176.183594 C 327.429688 176.25 327.429688 168.632812 332.277344 168.703125 C 337.128906 168.632812 337.128906 176.25 332.277344 176.183594 Z M 332.277344 176.183594 " fill-opacity="0.4" fill-rule="nonzero"/><path fill="#fe2860" d="M 332.277344 174.914062 C 329.070312 174.960938 329.070312 169.925781 332.277344 169.96875 C 335.484375 169.925781 335.484375 174.960938 332.277344 174.914062 Z M 332.277344 174.914062 " fill-opacity="0.6" fill-rule="nonzero"/><path fill="#ffffff" d="M 332.277344 173.652344 C 330.707031 173.675781 330.710938 171.210938 332.277344 171.230469 C 333.84375 171.210938 333.847656 173.675781 332.277344 173.652344 Z M 332.277344 173.652344 " fill-opacity="1" fill-rule="nonzero"/><path fill="#fe2860" d="M 247.015625 175.566406 C 256.949219 175.734375 256.945312 190.515625 247.015625 190.6875 C 237.085938 190.519531 237.085938 175.738281 247.015625 175.566406 Z M 247.015625 175.566406 " fill-opacity="0.2" fill-rule="nonzero"/><path fill="#fe2860" d="M 247.015625 188.777344 C 239.632812 188.734375 239.632812 177.519531 247.015625 177.480469 C 254.398438 177.523438 254.394531 188.742188 247.015625 188.777344 Z M 247.015625 188.777344 " fill-opacity="0.4" fill-rule="nonzero"/><path fill="#fe2860" d="M 247.015625 186.867188 C 242.164062 186.933594 242.164062 179.320312 247.015625 179.386719 C 251.863281 179.320312 251.863281 186.933594 247.015625 186.867188 Z M 247.015625 186.867188 " fill-opacity="0.6" fill-rule="nonzero"/><path fill="#ffffff" d="M 247.015625 184.957031 C 244.644531 184.988281 244.644531 181.269531 247.015625 181.300781 C 249.386719 181.269531 249.386719 184.988281 247.015625 184.957031 Z M 247.015625 184.957031 " fill-opacity="1" fill-rule="nonzero"/><path fill="#fe2860" d="M 330.492188 214.929688 C 338.1875 214.964844 338.1875 226.671875 330.492188 226.703125 C 322.796875 226.667969 322.796875 214.960938 330.492188 214.929688 Z M 330.492188 214.929688 " fill-opacity="0.2" fill-rule="nonzero"/><path fill="#fe2860" d="M 330.492188 225.214844 C 324.785156 225.296875 324.785156 216.335938 330.492188 216.414062 C 336.195312 216.332031 336.195312 225.292969 330.492188 225.214844 Z M 330.492188 225.214844 " fill-opacity="0.4" fill-rule="nonzero"/><path fill="#fe2860" d="M 330.492188 223.730469 C 326.714844 223.785156 326.714844 217.851562 330.492188 217.90625 C 334.269531 217.851562 334.269531 223.785156 330.492188 223.730469 Z M 330.492188 223.730469 " fill-opacity="0.6" fill-rule="nonzero"/><path fill="#ffffff" d="M 330.492188 222.242188 C 328.644531 222.269531 328.644531 219.367188 330.492188 219.390625 C 332.335938 219.363281 332.335938 222.265625 330.492188 222.242188 Z M 330.492188 222.242188 " fill-opacity="1" fill-rule="nonzero"/><path fill="#fe2860" d="M 204.410156 92.285156 C 214.34375 92.457031 214.34375 107.242188 204.410156 107.410156 C 194.476562 107.238281 194.476562 92.453125 204.410156 92.285156 Z M 204.410156 92.285156 " fill-opacity="0.2" fill-rule="nonzero"/><path fill="#fe2860" d="M 204.410156 105.5 C 197.023438 105.460938 197.027344 94.242188 204.410156 94.199219 C 211.792969 94.242188 211.792969 105.460938 204.410156 105.5 Z M 204.410156 105.5 " fill-opacity="0.4" fill-rule="nonzero"/><path fill="#fe2860" d="M 204.410156 103.589844 C 199.558594 103.660156 199.558594 96.042969 204.410156 96.109375 C 209.257812 96.042969 209.257812 103.660156 204.410156 103.589844 Z M 204.410156 103.589844 " fill-opacity="0.6" fill-rule="nonzero"/><path fill="#ffffff" d="M 204.410156 101.675781 C 202.039062 101.707031 202.039062 97.988281 204.410156 98.019531 C 206.78125 97.988281 206.78125 101.707031 204.410156 101.675781 Z M 204.410156 101.675781 " fill-opacity="1" fill-rule="nonzero"/><path fill="#fe2860" d="M 225.398438 21.300781 C 235.335938 21.472656 235.335938 36.257812 225.398438 36.425781 C 215.464844 36.253906 215.464844 21.46875 225.398438 21.300781 Z M 225.398438 21.300781 " fill-opacity="0.2" fill-rule="nonzero"/><path fill="#fe2860" d="M 225.398438 34.515625 C 218.011719 34.472656 218.015625 23.253906 225.398438 23.214844 C 232.785156 23.253906 232.785156 34.472656 225.398438 34.515625 Z M 225.398438 34.515625 " fill-opacity="0.4" fill-rule="nonzero"/><path fill="#fe2860" d="M 225.398438 32.605469 C 220.550781 32.671875 220.550781 25.054688 225.398438 25.125 C 230.25 25.054688 230.25 32.671875 225.398438 32.605469 Z M 225.398438 32.605469 " fill-opacity="0.6" fill-rule="nonzero"/><path fill="#ffffff" d="M 225.398438 30.695312 C 223.03125 30.726562 223.03125 27.007812 225.398438 27.039062 C 227.769531 27.007812 227.769531 30.726562 225.398438 30.695312 Z M 225.398438 30.695312 " fill-opacity="1" fill-rule="nonzero"/><path fill="#fe2860" d="M 180.296875 93.671875 C 186.414062 93.699219 186.414062 103.003906 180.296875 103.027344 C 174.179688 103.003906 174.179688 93.699219 180.296875 93.671875 Z M 180.296875 93.671875 " fill-opacity="0.2" fill-rule="nonzero"/><path fill="#fe2860" d="M 180.296875 101.847656 C 175.765625 101.910156 175.765625 94.792969 180.296875 94.855469 C 184.828125 94.792969 184.828125 101.910156 180.296875 101.847656 Z M 180.296875 101.847656 " fill-opacity="0.4" fill-rule="nonzero"/><path fill="#fe2860" d="M 180.296875 100.664062 C 177.296875 100.703125 177.296875 95.992188 180.296875 96.03125 C 183.296875 95.992188 183.296875 100.703125 180.296875 100.664062 Z M 180.296875 100.664062 " fill-opacity="0.6" fill-rule="nonzero"/><path fill="#ffffff" d="M 180.296875 99.480469 C 178.828125 99.503906 178.828125 97.195312 180.296875 97.21875 C 181.761719 97.195312 181.761719 99.503906 180.296875 99.480469 Z M 180.296875 99.480469 " fill-opacity="1" fill-rule="nonzero"/><path fill="#fe2860" d="M 268.101562 80.195312 C 271.246094 80.148438 271.246094 85.085938 268.101562 85.039062 C 264.957031 85.085938 264.957031 80.148438 268.101562 80.195312 Z M 268.101562 80.195312 " fill-opacity="0.2" fill-rule="nonzero"/><path fill="#fe2860" d="M 268.101562 84.425781 C 265.753906 84.457031 265.753906 80.773438 268.101562 80.804688 C 270.449219 80.773438 270.449219 84.457031 268.101562 84.425781 Z M 268.101562 84.425781 " fill-opacity="0.4" fill-rule="nonzero"/><path fill="#fe2860" d="M 268.101562 83.8125 C 266.550781 83.835938 266.550781 81.398438 268.101562 81.421875 C 269.652344 81.398438 269.652344 83.835938 268.101562 83.8125 Z M 268.101562 83.8125 " fill-opacity="0.6" fill-rule="nonzero"/><path fill="#ffffff" d="M 268.101562 83.203125 C 267.339844 83.210938 267.339844 82.019531 268.101562 82.03125 C 268.863281 82.023438 268.863281 83.21875 268.101562 83.203125 Z M 268.101562 83.203125 " fill-opacity="1" fill-rule="nonzero"/><path fill="#fe2860" d="M 357.519531 182.003906 C 367.457031 182.175781 367.457031 196.957031 357.519531 197.125 C 347.585938 196.953125 347.585938 182.167969 357.519531 182.003906 Z M 357.519531 182.003906 " fill-opacity="0.2" fill-rule="nonzero"/><path fill="#fe2860" d="M 357.519531 195.210938 C 350.132812 195.171875 350.136719 183.953125 357.519531 183.910156 C 364.90625 183.953125 364.90625 195.171875 357.519531 195.210938 Z M 357.519531 195.210938 " fill-opacity="0.4" fill-rule="nonzero"/><path fill="#fe2860" d="M 357.519531 193.300781 C 352.671875 193.371094 352.671875 185.753906 357.519531 185.820312 C 362.371094 185.753906 362.371094 193.371094 357.519531 193.300781 Z M 357.519531 193.300781 " fill-opacity="0.6" fill-rule="nonzero"/><path fill="#ffffff" d="M 357.519531 191.394531 C 355.152344 191.425781 355.152344 187.703125 357.519531 187.734375 C 359.890625 187.703125 359.890625 191.425781 357.519531 191.394531 Z M 357.519531 191.394531 " fill-opacity="1" fill-rule="nonzero"/><path fill="#fe2860" d="M 332.148438 56.386719 C 342.082031 56.558594 342.082031 71.34375 332.148438 71.507812 C 322.210938 71.335938 322.210938 56.554688 332.148438 56.386719 Z M 332.148438 56.386719 " fill-opacity="0.2" fill-rule="nonzero"/><path fill="#fe2860" d="M 332.148438 69.59375 C 324.757812 69.554688 324.761719 58.335938 332.148438 58.296875 C 339.53125 58.335938 339.53125 69.554688 332.148438 69.59375 Z M 332.148438 69.59375 " fill-opacity="0.4" fill-rule="nonzero"/><path fill="#fe2860" d="M 332.148438 67.6875 C 327.296875 67.753906 327.296875 60.136719 332.148438 60.207031 C 336.996094 60.136719 336.996094 67.753906 332.148438 67.6875 Z M 332.148438 67.6875 " fill-opacity="0.6" fill-rule="nonzero"/><path fill="#ffffff" d="M 332.148438 65.777344 C 329.777344 65.808594 329.777344 62.085938 332.148438 62.121094 C 334.515625 62.085938 334.515625 65.808594 332.148438 65.777344 Z M 332.148438 65.777344 " fill-opacity="1" fill-rule="nonzero"/><path fill="#fe2860" d="M 124.191406 28.863281 C 130.871094 28.894531 130.871094 39.054688 124.191406 39.085938 C 117.507812 39.054688 117.507812 28.894531 124.191406 28.863281 Z M 124.191406 28.863281 " fill-opacity="0.2" fill-rule="nonzero"/><path fill="#fe2860" d="M 124.191406 37.789062 C 119.238281 37.859375 119.238281 30.082031 124.191406 30.152344 C 129.144531 30.082031 129.144531 37.859375 124.191406 37.789062 Z M 124.191406 37.789062 " fill-opacity="0.4" fill-rule="nonzero"/><path fill="#fe2860" d="M 124.191406 36.5 C 120.914062 36.546875 120.914062 31.402344 124.191406 31.445312 C 127.464844 31.402344 127.464844 36.546875 124.191406 36.5 Z M 124.191406 36.5 " fill-opacity="0.6" fill-rule="nonzero"/><path fill="#ffffff" d="M 124.191406 35.207031 C 122.589844 35.230469 122.589844 32.714844 124.191406 32.734375 C 125.792969 32.714844 125.792969 35.230469 124.191406 35.207031 Z M 124.191406 35.207031 " fill-opacity="1" fill-rule="nonzero"/><path fill="#fe2860" d="M 292.988281 50.4375 C 297.835938 50.367188 297.835938 57.988281 292.988281 57.917969 C 288.136719 57.992188 288.136719 50.371094 292.988281 50.4375 Z M 292.988281 50.4375 " fill-opacity="0.2" fill-rule="nonzero"/><path fill="#fe2860" d="M 292.988281 56.96875 C 289.363281 57.019531 289.363281 51.332031 292.988281 51.378906 C 296.609375 51.332031 296.609375 57.019531 292.988281 56.96875 Z M 292.988281 56.96875 " fill-opacity="0.4" fill-rule="nonzero"/><path fill="#fe2860" d="M 292.988281 56.027344 C 290.589844 56.058594 290.589844 52.300781 292.988281 52.332031 C 295.386719 52.300781 295.386719 56.058594 292.988281 56.027344 Z M 292.988281 56.027344 " fill-opacity="0.6" fill-rule="nonzero"/><path fill="#ffffff" d="M 292.988281 55.082031 C 291.816406 55.097656 291.816406 53.257812 292.988281 53.277344 C 294.160156 53.261719 294.160156 55.101562 292.988281 55.082031 Z M 292.988281 55.082031 " fill-opacity="1" fill-rule="nonzero"/><path fill="#fe2860" d="M 154.355469 147.296875 C 159.207031 147.222656 159.207031 154.84375 154.355469 154.777344 C 149.507812 154.851562 149.507812 147.230469 154.355469 147.296875 Z M 154.355469 147.296875 " fill-opacity="0.2" fill-rule="nonzero"/><path fill="#fe2860" d="M 154.355469 153.832031 C 150.734375 153.882812 150.734375 148.191406 154.355469 148.242188 C 157.980469 148.191406 157.980469 153.882812 154.355469 153.832031 Z M 154.355469 153.832031 " fill-opacity="0.4" fill-rule="nonzero"/><path fill="#fe2860" d="M 154.355469 152.886719 C 151.957031 152.917969 151.957031 149.15625 154.355469 149.1875 C 156.753906 149.15625 156.753906 152.917969 154.355469 152.886719 Z M 154.355469 152.886719 " fill-opacity="0.6" fill-rule="nonzero"/><path fill="#ffffff" d="M 154.355469 151.941406 C 153.183594 151.953125 153.183594 150.117188 154.355469 150.132812 C 155.527344 150.121094 155.527344 151.957031 154.355469 151.941406 Z M 154.355469 151.941406 " fill-opacity="1" fill-rule="nonzero"/><path fill="#fe2860" d="M 192.953125 223.570312 C 196.578125 223.515625 196.578125 229.210938 192.953125 229.15625 C 189.332031 229.210938 189.332031 223.515625 192.953125 223.570312 Z M 192.953125 223.570312 " fill-opacity="0.2" fill-rule="nonzero"/><path fill="#fe2860" d="M 192.953125 228.453125 C 190.246094 228.488281 190.246094 224.234375 192.953125 224.273438 C 195.664062 224.238281 195.664062 228.492188 192.953125 228.453125 Z M 192.953125 228.453125 " fill-opacity="0.4" fill-rule="nonzero"/><path fill="#fe2860" d="M 192.953125 227.746094 C 191.164062 227.773438 191.160156 224.953125 192.953125 224.976562 C 194.75 224.949219 194.75 227.769531 192.953125 227.746094 Z M 192.953125 227.746094 " fill-opacity="0.6" fill-rule="nonzero"/><path fill="#ffffff" d="M 192.953125 227.035156 C 192.078125 227.046875 192.078125 225.671875 192.953125 225.683594 C 193.832031 225.667969 193.832031 227.042969 192.953125 227.035156 Z M 192.953125 227.035156 " fill-opacity="1" fill-rule="nonzero"/><path fill="#fe2860" d="M 189.675781 10.371094 C 194.523438 10.296875 194.523438 17.917969 189.675781 17.851562 C 184.824219 17.925781 184.824219 10.304688 189.675781 10.371094 Z M 189.675781 10.371094 " fill-opacity="0.2" fill-rule="nonzero"/><path fill="#fe2860" d="M 189.675781 16.902344 C 186.050781 16.949219 186.050781 11.261719 189.675781 11.3125 C 193.296875 11.261719 193.296875 16.949219 189.675781 16.902344 Z M 189.675781 16.902344 " fill-opacity="0.4" fill-rule="nonzero"/><path fill="#fe2860" d="M 189.675781 15.957031 C 187.277344 15.988281 187.277344 12.226562 189.675781 12.257812 C 192.074219 12.226562 192.074219 15.988281 189.675781 15.957031 Z M 189.675781 15.957031 " fill-opacity="0.6" fill-rule="nonzero"/><path fill="#ffffff" d="M 189.675781 15.015625 C 188.503906 15.027344 188.503906 13.191406 189.675781 13.207031 C 190.847656 13.195312 190.847656 15.03125 189.675781 15.015625 Z M 189.675781 15.015625 " fill-opacity="1" fill-rule="nonzero"/><path fill="#fe2860" d="M 226.308594 67.039062 C 233.832031 67.070312 233.832031 78.515625 226.308594 78.546875 C 218.785156 78.515625 218.785156 67.070312 226.308594 67.039062 Z M 226.308594 67.039062 " fill-opacity="0.2" fill-rule="nonzero"/><path fill="#fe2860" d="M 226.308594 77.097656 C 220.734375 77.175781 220.734375 68.421875 226.308594 68.5 C 231.882812 68.421875 231.882812 77.175781 226.308594 77.097656 Z M 226.308594 77.097656 " fill-opacity="0.4" fill-rule="nonzero"/><path fill="#fe2860" d="M 226.308594 75.640625 C 222.617188 75.691406 222.617188 69.894531 226.308594 69.949219 C 230 69.898438 230 75.695312 226.308594 75.640625 Z M 226.308594 75.640625 " fill-opacity="0.6" fill-rule="nonzero"/><path fill="#ffffff" d="M 226.308594 74.1875 C 224.503906 74.210938 224.503906 71.378906 226.308594 71.40625 C 228.113281 71.382812 228.113281 74.214844 226.308594 74.1875 Z M 226.308594 74.1875 " fill-opacity="1" fill-rule="nonzero"/><path fill="#fe2860" d="M 295.0625 72.515625 C 305 72.6875 305 87.472656 295.0625 87.636719 C 285.128906 87.464844 285.128906 72.683594 295.0625 72.515625 Z M 295.0625 72.515625 " fill-opacity="0.2" fill-rule="nonzero"/><path fill="#fe2860" d="M 295.0625 85.722656 C 287.675781 85.683594 287.679688 74.464844 295.0625 74.425781 C 302.445312 74.464844 302.445312 85.683594 295.0625 85.722656 Z M 295.0625 85.722656 " fill-opacity="0.4" fill-rule="nonzero"/><path fill="#fe2860" d="M 295.0625 83.8125 C 290.214844 83.882812 290.214844 76.265625 295.0625 76.332031 C 299.914062 76.265625 299.914062 83.882812 295.0625 83.8125 Z M 295.0625 83.8125 " fill-opacity="0.6" fill-rule="nonzero"/><path fill="#ffffff" d="M 295.0625 81.90625 C 292.695312 81.9375 292.695312 78.214844 295.0625 78.246094 C 297.433594 78.214844 297.433594 81.9375 295.0625 81.90625 Z M 295.0625 81.90625 " fill-opacity="1" fill-rule="nonzero"/><path fill="#fe2860" d="M 315.375 100.46875 C 321.539062 100.496094 321.539062 109.867188 315.375 109.894531 C 309.214844 109.867188 309.214844 100.496094 315.375 100.46875 Z M 315.375 100.46875 " fill-opacity="0.2" fill-rule="nonzero"/><path fill="#fe2860" d="M 315.375 108.703125 C 310.8125 108.765625 310.808594 101.59375 315.375 101.65625 C 319.945312 101.59375 319.945312 108.765625 315.375 108.703125 Z M 315.375 108.703125 " fill-opacity="0.4" fill-rule="nonzero"/><path fill="#fe2860" d="M 315.375 107.515625 C 312.355469 107.554688 312.355469 102.808594 315.375 102.847656 C 318.398438 102.808594 318.398438 107.554688 315.375 107.515625 Z M 315.375 107.515625 " fill-opacity="0.6" fill-rule="nonzero"/><path fill="#ffffff" d="M 315.375 106.320312 C 313.898438 106.335938 313.898438 104.015625 315.375 104.039062 C 316.855469 104.019531 316.855469 106.34375 315.375 106.320312 Z M 315.375 106.320312 " fill-opacity="1" fill-rule="nonzero"/><path fill="#fe2860" d="M 138.757812 89.808594 C 145.730469 89.84375 145.730469 100.445312 138.757812 100.476562 C 131.785156 100.445312 131.785156 89.84375 138.757812 89.808594 Z M 138.757812 89.808594 " fill-opacity="0.2" fill-rule="nonzero"/><path fill="#fe2860" d="M 138.757812 99.128906 C 133.585938 99.199219 133.59375 91.085938 138.757812 91.160156 C 143.925781 91.085938 143.925781 99.199219 138.757812 99.128906 Z M 138.757812 99.128906 " fill-opacity="0.4" fill-rule="nonzero"/><path fill="#fe2860" d="M 138.757812 97.785156 C 135.339844 97.835938 135.339844 92.460938 138.757812 92.511719 C 142.179688 92.460938 142.179688 97.835938 138.757812 97.785156 Z M 138.757812 97.785156 " fill-opacity="0.6" fill-rule="nonzero"/><path fill="#ffffff" d="M 138.757812 96.4375 C 137.085938 96.457031 137.085938 93.832031 138.757812 93.855469 C 140.433594 93.828125 140.4375 96.460938 138.757812 96.4375 Z M 138.757812 96.4375 " fill-opacity="1" fill-rule="nonzero"/><path fill="#fe2860" d="M 149.730469 39.1875 C 154.460938 39.121094 154.460938 46.550781 149.730469 46.484375 C 144.996094 46.550781 144.996094 39.121094 149.730469 39.1875 Z M 149.730469 39.1875 " fill-opacity="0.2" fill-rule="nonzero"/><path fill="#fe2860" d="M 149.730469 45.566406 C 146.195312 45.613281 146.195312 40.066406 149.730469 40.113281 C 153.261719 40.0625 153.261719 45.609375 149.730469 45.566406 Z M 149.730469 45.566406 " fill-opacity="0.4" fill-rule="nonzero"/><path fill="#fe2860" d="M 149.730469 44.640625 C 147.390625 44.675781 147.390625 41 149.730469 41.035156 C 152.066406 41.003906 152.066406 44.679688 149.730469 44.640625 Z M 149.730469 44.640625 " fill-opacity="0.6" fill-rule="nonzero"/><path fill="#ffffff" d="M 149.730469 43.71875 C 148.585938 43.734375 148.585938 41.9375 149.730469 41.953125 C 150.875 41.941406 150.875 43.738281 149.730469 43.71875 Z M 149.730469 43.71875 " fill-opacity="1" fill-rule="nonzero"/><path fill="#fe2860" d="M 195.855469 30.359375 C 205.039062 30.402344 205.039062 44.371094 195.855469 44.410156 C 186.671875 44.371094 186.671875 30.402344 195.855469 30.359375 Z M 195.855469 30.359375 " fill-opacity="0.2" fill-rule="nonzero"/><path fill="#fe2860" d="M 195.855469 42.632812 C 188.992188 42.597656 188.992188 32.164062 195.855469 32.132812 C 202.71875 32.171875 202.71875 42.601562 195.855469 42.632812 Z M 195.855469 42.632812 " fill-opacity="0.4" fill-rule="nonzero"/><path fill="#fe2860" d="M 195.855469 40.859375 C 191.347656 40.921875 191.347656 33.84375 195.855469 33.90625 C 200.359375 33.84375 200.359375 40.921875 195.855469 40.859375 Z M 195.855469 40.859375 " fill-opacity="0.6" fill-rule="nonzero"/><path fill="#ffffff" d="M 195.855469 39.085938 C 193.652344 39.117188 193.648438 35.648438 195.855469 35.683594 C 198.0625 35.648438 198.0625 39.117188 195.855469 39.085938 Z M 195.855469 39.085938 " fill-opacity="1" fill-rule="nonzero"/><path fill="#fe2860" d="M 106.609375 61.078125 C 111.34375 61.011719 111.34375 68.441406 106.609375 68.375 C 101.878906 68.441406 101.878906 61.011719 106.609375 61.078125 Z M 106.609375 61.078125 " fill-opacity="0.2" fill-rule="nonzero"/><path fill="#fe2860" d="M 106.609375 67.449219 C 103.078125 67.5 103.078125 61.953125 106.609375 61.996094 C 110.144531 61.949219 110.144531 67.496094 106.609375 67.449219 Z M 106.609375 67.449219 " fill-opacity="0.4" fill-rule="nonzero"/><path fill="#fe2860" d="M 106.609375 66.53125 C 104.273438 66.5625 104.273438 62.886719 106.609375 62.925781 C 108.949219 62.894531 108.949219 66.566406 106.609375 66.53125 Z M 106.609375 66.53125 " fill-opacity="0.6" fill-rule="nonzero"/><path fill="#ffffff" d="M 106.609375 65.609375 C 105.464844 65.621094 105.464844 63.824219 106.609375 63.84375 C 107.753906 63.828125 107.753906 65.625 106.609375 65.609375 Z M 106.609375 65.609375 " fill-opacity="1" fill-rule="nonzero"/><path fill="#fe2860" d="M 186.953125 189.558594 C 199.253906 189.769531 199.246094 208.074219 186.953125 208.28125 C 174.652344 208.074219 174.65625 189.769531 186.953125 189.558594 Z M 186.953125 189.558594 " fill-opacity="0.2" fill-rule="nonzero"/><path fill="#fe2860" d="M 186.953125 205.914062 C 177.808594 205.863281 177.808594 191.972656 186.953125 191.921875 C 196.09375 191.972656 196.09375 205.863281 186.953125 205.914062 Z M 186.953125 205.914062 " fill-opacity="0.4" fill-rule="nonzero"/><path fill="#fe2860" d="M 186.953125 203.550781 C 180.949219 203.632812 180.953125 194.210938 186.953125 194.296875 C 192.949219 194.214844 192.949219 203.636719 186.953125 203.550781 Z M 186.953125 203.550781 " fill-opacity="0.6" fill-rule="nonzero"/><path fill="#ffffff" d="M 186.953125 201.1875 C 184.015625 201.226562 184.015625 196.621094 186.953125 196.660156 C 189.886719 196.621094 189.886719 201.226562 186.953125 201.1875 Z M 186.953125 201.1875 " fill-opacity="1" fill-rule="nonzero"/><path fill="#fe2860" d="M 275.539062 202.515625 C 288.28125 202.734375 288.28125 221.695312 275.539062 221.910156 C 262.796875 221.695312 262.800781 202.734375 275.539062 202.515625 Z M 275.539062 202.515625 " fill-opacity="0.2" fill-rule="nonzero"/><path fill="#fe2860" d="M 275.539062 219.054688 C 266.59375 219.007812 266.597656 205.421875 275.539062 205.371094 C 284.484375 205.421875 284.476562 219.007812 275.539062 219.054688 Z M 275.539062 219.054688 " fill-opacity="0.4" fill-rule="nonzero"/><path fill="#fe2860" d="M 275.539062 216.195312 C 270.378906 216.269531 270.378906 208.160156 275.539062 208.230469 C 280.699219 208.160156 280.699219 216.269531 275.539062 216.195312 Z M 275.539062 216.195312 " fill-opacity="0.6" fill-rule="nonzero"/><path fill="#ffffff" d="M 275.539062 213.339844 C 274.082031 213.363281 274.078125 211.070312 275.539062 211.085938 C 277 211.066406 277 213.359375 275.539062 213.339844 Z M 275.539062 213.339844 " fill-opacity="1" fill-rule="nonzero"/><path fill="#fe2860" d="M 291.417969 271.492188 C 300.710938 271.535156 300.710938 285.671875 291.417969 285.707031 C 282.125 285.667969 282.125 271.527344 291.417969 271.492188 Z M 291.417969 271.492188 " fill-opacity="0.2" fill-rule="nonzero"/><path fill="#fe2860" d="M 291.417969 283.613281 C 284.867188 283.574219 284.867188 273.621094 291.417969 273.582031 C 297.96875 273.621094 297.96875 283.574219 291.417969 283.613281 Z M 291.417969 283.613281 " fill-opacity="0.4" fill-rule="nonzero"/><path fill="#fe2860" d="M 291.417969 281.515625 C 287.632812 281.566406 287.632812 275.628906 291.417969 275.679688 C 295.199219 275.625 295.199219 281.566406 291.417969 281.515625 Z M 291.417969 281.515625 " fill-opacity="0.6" fill-rule="nonzero"/><path fill="#ffffff" d="M 291.417969 279.421875 C 290.351562 279.433594 290.351562 277.761719 291.417969 277.773438 C 292.484375 277.761719 292.484375 279.433594 291.417969 279.421875 Z M 291.417969 279.421875 " fill-opacity="1" fill-rule="nonzero"/><path fill="#0086ff" d="M 225.332031 196.65625 C 243.128906 196.957031 243.125 223.441406 225.332031 223.746094 C 207.535156 223.441406 207.539062 196.957031 225.332031 196.65625 Z M 225.332031 196.65625 " fill-opacity="0.2" fill-rule="nonzero"/><path fill="#0086ff" d="M 225.332031 220.847656 C 211.339844 220.601562 211.34375 199.796875 225.332031 199.550781 C 239.324219 199.800781 239.320312 220.605469 225.332031 220.847656 Z M 225.332031 220.847656 " fill-opacity="0.4" fill-rule="nonzero"/><path fill="#0086ff" d="M 225.332031 217.957031 C 215.140625 217.777344 215.144531 202.621094 225.332031 202.445312 C 235.523438 202.625 235.519531 217.78125 225.332031 217.957031 Z M 225.332031 217.957031 " fill-opacity="0.6" fill-rule="nonzero"/><path fill="#0086ff" d="M 225.332031 215.066406 C 218.976562 215.035156 218.976562 205.371094 225.332031 205.339844 C 231.6875 205.371094 231.6875 215.035156 225.332031 215.066406 Z M 225.332031 215.066406 " fill-opacity="0.8" fill-rule="nonzero"/><path fill="#ffffff" d="M 225.332031 212.171875 C 222.777344 212.210938 222.777344 208.195312 225.332031 208.230469 C 227.886719 208.195312 227.886719 212.210938 225.332031 212.171875 Z M 225.332031 212.171875 " fill-opacity="1" fill-rule="nonzero"/><path fill="#0086ff" d="M 171.894531 68.097656 C 179.867188 68.132812 179.867188 80.257812 171.894531 80.292969 C 163.925781 80.257812 163.925781 68.132812 171.894531 68.097656 Z M 171.894531 68.097656 " fill-opacity="0.2" fill-rule="nonzero"/><path fill="#0086ff" d="M 171.894531 78.996094 C 165.625 78.964844 165.625 69.433594 171.894531 69.40625 C 178.164062 69.4375 178.15625 78.964844 171.894531 78.996094 Z M 171.894531 78.996094 " fill-opacity="0.4" fill-rule="nonzero"/><path fill="#0086ff" d="M 171.894531 77.6875 C 167.367188 77.75 167.367188 70.636719 171.894531 70.699219 C 176.425781 70.636719 176.425781 77.75 171.894531 77.6875 Z M 171.894531 77.6875 " fill-opacity="0.6" fill-rule="nonzero"/><path fill="#0086ff" d="M 171.894531 76.382812 C 169.054688 76.417969 169.058594 71.964844 171.894531 72.003906 C 174.730469 71.964844 174.730469 76.417969 171.894531 76.382812 Z M 171.894531 76.382812 " fill-opacity="0.8" fill-rule="nonzero"/><path fill="#ffffff" d="M 171.894531 75.085938 C 170.746094 75.101562 170.746094 73.296875 171.894531 73.3125 C 173.042969 73.292969 173.042969 75.097656 171.894531 75.085938 Z M 171.894531 75.085938 " fill-opacity="1" fill-rule="nonzero"/><path fill="#0086ff" d="M 238.753906 122.746094 C 250.84375 122.953125 250.84375 140.941406 238.753906 141.148438 C 226.667969 140.9375 226.667969 122.949219 238.753906 122.746094 Z M 238.753906 122.746094 " fill-opacity="0.2" fill-rule="nonzero"/><path fill="#0086ff" d="M 238.757812 139.179688 C 229.304688 139.128906 229.300781 124.753906 238.757812 124.707031 C 248.21875 124.753906 248.214844 139.128906 238.757812 139.179688 Z M 238.757812 139.179688 " fill-opacity="0.4" fill-rule="nonzero"/><path fill="#0086ff" d="M 238.757812 137.214844 C 231.875 137.179688 231.875 126.714844 238.757812 126.679688 C 245.644531 126.714844 245.644531 137.179688 238.757812 137.214844 Z M 238.757812 137.214844 " fill-opacity="0.6" fill-rule="nonzero"/><path fill="#0086ff" d="M 238.757812 135.25 C 234.476562 135.308594 234.476562 128.585938 238.757812 128.644531 C 243.042969 128.585938 243.042969 135.308594 238.757812 135.25 Z M 238.757812 135.25 " fill-opacity="0.8" fill-rule="nonzero"/><path fill="#ffffff" d="M 238.757812 133.285156 C 237.023438 133.308594 237.023438 130.585938 238.757812 130.605469 C 240.496094 130.585938 240.496094 133.308594 238.757812 133.285156 Z M 238.757812 133.285156 " fill-opacity="1" fill-rule="nonzero"/><path fill="#0086ff" d="M 259.867188 91.246094 C 267.976562 91.28125 267.976562 103.613281 259.867188 103.648438 C 251.761719 103.613281 251.761719 91.28125 259.867188 91.246094 Z M 259.867188 91.246094 " fill-opacity="0.2" fill-rule="nonzero"/><path fill="#0086ff" d="M 259.867188 102.324219 C 253.492188 102.292969 253.492188 92.601562 259.867188 92.570312 C 266.242188 92.601562 266.242188 102.292969 259.867188 102.324219 Z M 259.867188 102.324219 " fill-opacity="0.4" fill-rule="nonzero"/><path fill="#0086ff" d="M 259.867188 100.996094 C 255.261719 101.0625 255.261719 93.828125 259.867188 93.890625 C 264.472656 93.828125 264.472656 101.0625 259.867188 100.996094 Z M 259.867188 100.996094 " fill-opacity="0.6" fill-rule="nonzero"/><path fill="#0086ff" d="M 259.867188 99.675781 C 256.976562 99.714844 256.976562 95.175781 259.867188 95.21875 C 262.757812 95.175781 262.757812 99.714844 259.867188 99.675781 Z M 259.867188 99.675781 " fill-opacity="0.8" fill-rule="nonzero"/><path fill="#ffffff" d="M 259.867188 98.351562 C 258.695312 98.363281 258.695312 96.527344 259.867188 96.542969 C 261.039062 96.53125 261.03125 98.363281 259.867188 98.351562 Z M 259.867188 98.351562 " fill-opacity="1" fill-rule="nonzero"/><path fill="#0086ff" d="M 259.867188 47.265625 C 270.582031 47.449219 270.574219 63.386719 259.867188 63.566406 C 249.15625 63.386719 249.160156 47.449219 259.867188 47.265625 Z M 259.867188 47.265625 " fill-opacity="0.2" fill-rule="nonzero"/><path fill="#0086ff" d="M 259.867188 61.828125 C 251.488281 61.785156 251.484375 49.050781 259.867188 49.007812 C 268.246094 49.054688 268.242188 61.785156 259.867188 61.828125 Z M 259.867188 61.828125 " fill-opacity="0.4" fill-rule="nonzero"/><path fill="#0086ff" d="M 259.867188 60.085938 C 253.765625 60.054688 253.765625 50.777344 259.867188 50.746094 C 265.972656 50.777344 265.972656 60.054688 259.867188 60.085938 Z M 259.867188 60.085938 " fill-opacity="0.6" fill-rule="nonzero"/><path fill="#0086ff" d="M 259.867188 58.34375 C 256.074219 58.398438 256.074219 52.433594 259.867188 52.488281 C 263.664062 52.433594 263.664062 58.398438 259.867188 58.34375 Z M 259.867188 58.34375 " fill-opacity="0.8" fill-rule="nonzero"/><path fill="#ffffff" d="M 259.867188 56.601562 C 258.328125 56.621094 258.335938 54.214844 259.867188 54.230469 C 261.402344 54.207031 261.40625 56.625 259.867188 56.601562 Z M 259.867188 56.601562 " fill-opacity="1" fill-rule="nonzero"/><path fill="#0086ff" d="M 262.09375 10.421875 C 268.046875 10.335938 268.046875 19.6875 262.09375 19.597656 C 256.140625 19.683594 256.140625 10.332031 262.09375 10.421875 Z M 262.09375 10.421875 " fill-opacity="0.2" fill-rule="nonzero"/><path fill="#0086ff" d="M 262.09375 18.621094 C 257.410156 18.6875 257.410156 11.335938 262.09375 11.402344 C 266.769531 11.335938 266.769531 18.6875 262.09375 18.621094 Z M 262.09375 18.621094 " fill-opacity="0.4" fill-rule="nonzero"/><path fill="#0086ff" d="M 262.09375 17.640625 C 258.6875 17.683594 258.6875 12.335938 262.09375 12.378906 C 265.5 12.335938 265.5 17.683594 262.09375 17.640625 Z M 262.09375 17.640625 " fill-opacity="0.6" fill-rule="nonzero"/><path fill="#0086ff" d="M 262.09375 16.660156 C 259.957031 16.691406 259.957031 13.335938 262.09375 13.367188 C 264.230469 13.335938 264.230469 16.691406 262.09375 16.660156 Z M 262.09375 16.660156 " fill-opacity="0.8" fill-rule="nonzero"/><path fill="#ffffff" d="M 262.09375 15.683594 C 261.230469 15.699219 261.230469 14.339844 262.09375 14.347656 C 262.957031 14.335938 262.957031 15.691406 262.09375 15.683594 Z M 262.09375 15.683594 " fill-opacity="1" fill-rule="nonzero"/><path fill="#0086ff" d="M 164.207031 175.101562 C 174.402344 175.273438 174.402344 190.445312 164.207031 190.625 C 154.007812 190.453125 154.007812 175.277344 164.207031 175.101562 Z M 164.207031 175.101562 " fill-opacity="0.2" fill-rule="nonzero"/><path fill="#0086ff" d="M 164.207031 188.960938 C 156.226562 188.921875 156.230469 176.792969 164.207031 176.753906 C 172.179688 176.792969 172.179688 188.921875 164.207031 188.960938 Z M 164.207031 188.960938 " fill-opacity="0.4" fill-rule="nonzero"/><path fill="#0086ff" d="M 164.207031 187.304688 C 158.441406 187.386719 158.441406 178.335938 164.207031 178.417969 C 169.96875 178.335938 169.96875 187.386719 164.207031 187.304688 Z M 164.207031 187.304688 " fill-opacity="0.6" fill-rule="nonzero"/><path fill="#0086ff" d="M 164.207031 185.644531 C 160.589844 185.695312 160.589844 180.015625 164.207031 180.070312 C 167.820312 180.019531 167.820312 185.699219 164.207031 185.644531 Z M 164.207031 185.644531 " fill-opacity="0.8" fill-rule="nonzero"/><path fill="#ffffff" d="M 164.207031 183.988281 C 162.738281 184.007812 162.738281 181.710938 164.207031 181.730469 C 165.671875 181.710938 165.671875 184.007812 164.207031 183.988281 Z M 164.207031 183.988281 " fill-opacity="1" fill-rule="nonzero"/><path fill="#0086ff" d="M 351.875 127.546875 C 361.996094 127.71875 361.996094 142.78125 351.875 142.949219 C 341.753906 142.777344 341.761719 127.714844 351.875 127.546875 Z M 351.875 127.546875 " fill-opacity="0.2" fill-rule="nonzero"/><path fill="#0086ff" d="M 351.875 141.304688 C 343.957031 141.265625 343.957031 129.230469 351.875 129.191406 C 359.792969 129.230469 359.792969 141.265625 351.875 141.304688 Z M 351.875 141.304688 " fill-opacity="0.4" fill-rule="nonzero"/><path fill="#0086ff" d="M 351.875 139.65625 C 346.15625 139.734375 346.160156 130.761719 351.875 130.839844 C 357.59375 130.761719 357.59375 139.734375 351.875 139.65625 Z M 351.875 139.65625 " fill-opacity="0.6" fill-rule="nonzero"/><path fill="#0086ff" d="M 351.875 138.015625 C 348.289062 138.066406 348.292969 132.433594 351.875 132.484375 C 355.457031 132.433594 355.457031 138.066406 351.875 138.015625 Z M 351.875 138.015625 " fill-opacity="0.8" fill-rule="nonzero"/><path fill="#ffffff" d="M 351.875 136.367188 C 350.421875 136.386719 350.421875 134.109375 351.875 134.128906 C 353.328125 134.109375 353.328125 136.386719 351.875 136.367188 Z M 351.875 136.367188 " fill-opacity="1" fill-rule="nonzero"/><path fill="#0086ff" d="M 336.230469 90.261719 C 342.183594 90.175781 342.183594 99.53125 336.230469 99.441406 C 330.277344 99.527344 330.277344 90.171875 336.230469 90.261719 Z M 336.230469 90.261719 " fill-opacity="0.2" fill-rule="nonzero"/><path fill="#0086ff" d="M 336.230469 98.457031 C 331.550781 98.527344 331.550781 91.171875 336.230469 91.242188 C 340.910156 91.171875 340.910156 98.527344 336.230469 98.457031 Z M 336.230469 98.457031 " fill-opacity="0.4" fill-rule="nonzero"/><path fill="#0086ff" d="M 336.230469 97.480469 C 332.824219 97.527344 332.824219 92.175781 336.230469 92.222656 C 339.636719 92.175781 339.636719 97.527344 336.230469 97.480469 Z M 336.230469 97.480469 " fill-opacity="0.6" fill-rule="nonzero"/><path fill="#0086ff" d="M 336.230469 96.5 C 334.097656 96.53125 334.097656 93.171875 336.230469 93.203125 C 338.367188 93.171875 338.367188 96.53125 336.230469 96.5 Z M 336.230469 96.5 " fill-opacity="0.8" fill-rule="nonzero"/><path fill="#ffffff" d="M 336.230469 95.523438 C 335.367188 95.535156 335.367188 94.175781 336.230469 94.1875 C 337.097656 94.171875 337.097656 95.53125 336.230469 95.523438 Z M 336.230469 95.523438 " fill-opacity="1" fill-rule="nonzero"/><path fill="#0086ff" d="M 133.429688 68.722656 C 139.382812 68.636719 139.382812 77.988281 133.429688 77.898438 C 127.476562 77.984375 127.476562 68.632812 133.429688 68.722656 Z M 133.429688 68.722656 " fill-opacity="0.2" fill-rule="nonzero"/><path fill="#0086ff" d="M 133.429688 76.917969 C 128.746094 76.984375 128.746094 69.632812 133.429688 69.699219 C 138.105469 69.632812 138.105469 76.984375 133.429688 76.917969 Z M 133.429688 76.917969 " fill-opacity="0.4" fill-rule="nonzero"/><path fill="#0086ff" d="M 133.429688 75.941406 C 130.023438 75.984375 130.023438 70.636719 133.429688 70.679688 C 136.835938 70.636719 136.835938 75.984375 133.429688 75.941406 Z M 133.429688 75.941406 " fill-opacity="0.6" fill-rule="nonzero"/><path fill="#0086ff" d="M 133.429688 74.957031 C 131.292969 74.988281 131.292969 71.632812 133.429688 71.664062 C 135.5625 71.632812 135.5625 74.988281 133.429688 74.957031 Z M 133.429688 74.957031 " fill-opacity="0.8" fill-rule="nonzero"/><path fill="#ffffff" d="M 133.429688 73.976562 C 132.566406 73.988281 132.566406 72.632812 133.429688 72.640625 C 134.292969 72.628906 134.292969 73.984375 133.429688 73.976562 Z M 133.429688 73.976562 " fill-opacity="1" fill-rule="nonzero"/><path fill="#0086ff" d="M 292.082031 25.605469 C 302.996094 25.789062 302.988281 42.023438 292.082031 42.207031 C 281.171875 42.023438 281.175781 25.789062 292.082031 25.605469 Z M 292.082031 25.605469 " fill-opacity="0.2" fill-rule="nonzero"/><path fill="#0086ff" d="M 292.082031 40.4375 C 283.546875 40.394531 283.546875 27.421875 292.082031 27.378906 C 300.621094 27.421875 300.613281 40.394531 292.082031 40.4375 Z M 292.082031 40.4375 " fill-opacity="0.4" fill-rule="nonzero"/><path fill="#0086ff" d="M 292.082031 38.664062 C 285.867188 38.632812 285.867188 29.183594 292.082031 29.152344 C 298.296875 29.183594 298.296875 38.632812 292.082031 38.664062 Z M 292.082031 38.664062 " fill-opacity="0.6" fill-rule="nonzero"/><path fill="#0086ff" d="M 292.082031 36.890625 C 288.21875 36.945312 288.21875 30.871094 292.082031 30.929688 C 295.945312 30.875 295.945312 36.949219 292.082031 36.890625 Z M 292.082031 36.890625 " fill-opacity="0.8" fill-rule="nonzero"/><path fill="#ffffff" d="M 292.082031 35.117188 C 290.511719 35.140625 290.511719 32.675781 292.082031 32.699219 C 293.648438 32.675781 293.648438 35.140625 292.082031 35.117188 Z M 292.082031 35.117188 " fill-opacity="1" fill-rule="nonzero"/><g clip-path="url(#ef1b268225)"><path fill="#0086ff" d="M 163.671875 6.710938 C 174.582031 6.894531 174.578125 23.128906 163.671875 23.3125 C 152.757812 23.128906 152.765625 6.894531 163.671875 6.710938 Z M 163.671875 6.710938 " fill-opacity="0.2" fill-rule="nonzero"/></g><path fill="#0086ff" d="M 163.671875 21.542969 C 155.132812 21.5 155.132812 8.527344 163.671875 8.484375 C 172.207031 8.527344 172.203125 21.5 163.671875 21.542969 Z M 163.671875 21.542969 " fill-opacity="0.4" fill-rule="nonzero"/><path fill="#0086ff" d="M 163.671875 19.765625 C 157.457031 19.734375 157.457031 10.285156 163.671875 10.253906 C 169.886719 10.285156 169.886719 19.734375 163.671875 19.765625 Z M 163.671875 19.765625 " fill-opacity="0.6" fill-rule="nonzero"/><path fill="#0086ff" d="M 163.671875 17.996094 C 159.808594 18.050781 159.808594 11.976562 163.671875 12.035156 C 167.535156 11.980469 167.535156 18.054688 163.671875 17.996094 Z M 163.671875 17.996094 " fill-opacity="0.8" fill-rule="nonzero"/><path fill="#ffffff" d="M 163.671875 16.222656 C 162.101562 16.246094 162.101562 13.785156 163.671875 13.804688 C 165.238281 13.785156 165.238281 16.246094 163.671875 16.222656 Z M 163.671875 16.222656 " fill-opacity="1" fill-rule="nonzero"/><path fill="#0086ff" d="M 305.671875 159.050781 C 310.128906 158.984375 310.128906 165.992188 305.671875 165.921875 C 301.214844 165.988281 301.214844 158.980469 305.671875 159.050781 Z M 305.671875 159.050781 " fill-opacity="0.2" fill-rule="nonzero"/><path fill="#0086ff" d="M 305.671875 165.191406 C 302.167969 165.238281 302.167969 159.738281 305.671875 159.785156 C 309.179688 159.738281 309.179688 165.238281 305.671875 165.191406 Z M 305.671875 165.191406 " fill-opacity="0.4" fill-rule="nonzero"/><path fill="#0086ff" d="M 305.671875 164.453125 C 303.121094 164.488281 303.117188 160.476562 305.671875 160.511719 C 308.230469 160.476562 308.230469 164.488281 305.671875 164.453125 Z M 305.671875 164.453125 " fill-opacity="0.6" fill-rule="nonzero"/><path fill="#0086ff" d="M 305.671875 163.71875 C 304.070312 163.742188 304.070312 161.226562 305.671875 161.25 C 307.273438 161.226562 307.273438 163.742188 305.671875 163.71875 Z M 305.671875 163.71875 " fill-opacity="0.8" fill-rule="nonzero"/><path fill="#ffffff" d="M 305.671875 162.988281 C 305.027344 162.996094 305.027344 161.976562 305.671875 161.988281 C 306.320312 161.976562 306.320312 162.996094 305.671875 162.988281 Z M 305.671875 162.988281 " fill-opacity="1" fill-rule="nonzero"/><path fill="#0086ff" d="M 248.84375 224.839844 C 256.335938 224.871094 256.335938 236.265625 248.84375 236.304688 C 241.351562 236.269531 241.351562 224.875 248.84375 224.839844 Z M 248.84375 224.839844 " fill-opacity="0.2" fill-rule="nonzero"/><path fill="#0086ff" d="M 248.84375 235.078125 C 243 235.15625 243 225.980469 248.84375 226.0625 C 254.6875 225.980469 254.6875 235.15625 248.84375 235.078125 Z M 248.84375 235.078125 " fill-opacity="0.4" fill-rule="nonzero"/><path fill="#0086ff" d="M 248.84375 233.851562 C 244.585938 233.910156 244.585938 227.226562 248.84375 227.285156 C 253.101562 227.226562 253.101562 233.910156 248.84375 233.851562 Z M 248.84375 233.851562 " fill-opacity="0.6" fill-rule="nonzero"/><path fill="#0086ff" d="M 248.84375 232.625 C 246.175781 232.660156 246.179688 228.472656 248.84375 228.511719 C 251.507812 228.472656 251.507812 232.660156 248.84375 232.625 Z M 248.84375 232.625 " fill-opacity="0.8" fill-rule="nonzero"/><path fill="#ffffff" d="M 248.84375 231.402344 C 247.761719 231.414062 247.761719 229.722656 248.84375 229.738281 C 249.925781 229.722656 249.925781 231.414062 248.84375 231.402344 Z M 248.84375 231.402344 " fill-opacity="1" fill-rule="nonzero"/><path fill="#0086ff" d="M 192.953125 117.011719 C 200.445312 117.042969 200.445312 128.4375 192.953125 128.476562 C 185.464844 128.445312 185.464844 117.050781 192.953125 117.011719 Z M 192.953125 117.011719 " fill-opacity="0.2" fill-rule="nonzero"/><path fill="#0086ff" d="M 192.953125 127.25 C 187.109375 127.332031 187.109375 118.152344 192.953125 118.234375 C 198.800781 118.152344 198.800781 127.332031 192.953125 127.25 Z M 192.953125 127.25 " fill-opacity="0.4" fill-rule="nonzero"/><path fill="#0086ff" d="M 192.953125 126.027344 C 188.699219 126.085938 188.699219 119.402344 192.953125 119.460938 C 197.210938 119.402344 197.210938 126.085938 192.953125 126.027344 Z M 192.953125 126.027344 " fill-opacity="0.6" fill-rule="nonzero"/><path fill="#0086ff" d="M 192.953125 124.804688 C 190.285156 124.839844 190.289062 120.65625 192.953125 120.691406 C 195.621094 120.65625 195.621094 124.839844 192.953125 124.804688 Z M 192.953125 124.804688 " fill-opacity="0.8" fill-rule="nonzero"/><path fill="#ffffff" d="M 192.953125 123.578125 C 191.875 123.59375 191.875 121.898438 192.953125 121.914062 C 194.035156 121.898438 194.035156 123.59375 192.953125 123.578125 Z M 192.953125 123.578125 " fill-opacity="1" fill-rule="nonzero"/><path fill="#0086ff" d="M 230.046875 88.421875 C 233.597656 88.371094 233.597656 93.953125 230.046875 93.898438 C 226.496094 93.945312 226.496094 88.367188 230.046875 88.421875 Z M 230.046875 88.421875 " fill-opacity="0.2" fill-rule="nonzero"/><path fill="#0086ff" d="M 230.046875 93.308594 C 227.257812 93.34375 227.253906 88.96875 230.046875 89.003906 C 232.832031 88.96875 232.832031 93.34375 230.046875 93.308594 Z M 230.046875 93.308594 " fill-opacity="0.4" fill-rule="nonzero"/><path fill="#0086ff" d="M 230.046875 92.726562 C 228.015625 92.75 228.015625 89.5625 230.046875 89.589844 C 232.078125 89.5625 232.078125 92.753906 230.046875 92.726562 Z M 230.046875 92.726562 " fill-opacity="0.6" fill-rule="nonzero"/><path fill="#0086ff" d="M 230.046875 92.140625 C 228.769531 92.160156 228.769531 90.15625 230.046875 90.171875 C 231.320312 90.15625 231.320312 92.160156 230.046875 92.140625 Z M 230.046875 92.140625 " fill-opacity="0.8" fill-rule="nonzero"/><path fill="#ffffff" d="M 230.046875 91.558594 C 229.53125 91.566406 229.53125 90.757812 230.046875 90.765625 C 230.5625 90.757812 230.5625 91.566406 230.046875 91.558594 Z M 230.046875 91.558594 " fill-opacity="1" fill-rule="nonzero"/><path fill="#0086ff" d="M 326.234375 127.820312 C 331.152344 127.746094 331.152344 135.476562 326.234375 135.402344 C 321.316406 135.476562 321.316406 127.746094 326.234375 127.820312 Z M 326.234375 127.820312 " fill-opacity="0.2" fill-rule="nonzero"/><path fill="#0086ff" d="M 326.234375 134.59375 C 322.367188 134.648438 322.367188 128.574219 326.234375 128.625 C 330.101562 128.570312 330.101562 134.644531 326.234375 134.59375 Z M 326.234375 134.59375 " fill-opacity="0.4" fill-rule="nonzero"/><path fill="#0086ff" d="M 326.234375 133.785156 C 323.421875 133.820312 323.421875 129.402344 326.234375 129.441406 C 329.046875 129.398438 329.046875 133.820312 326.234375 133.785156 Z M 326.234375 133.785156 " fill-opacity="0.6" fill-rule="nonzero"/><path fill="#0086ff" d="M 326.234375 132.972656 C 324.46875 133 324.464844 130.222656 326.234375 130.25 C 328.003906 130.222656 328.003906 133 326.234375 132.972656 Z M 326.234375 132.972656 " fill-opacity="0.8" fill-rule="nonzero"/><path fill="#ffffff" d="M 326.234375 132.164062 C 325.519531 132.171875 325.519531 131.054688 326.234375 131.058594 C 326.949219 131.050781 326.949219 132.171875 326.234375 132.164062 Z M 326.234375 132.164062 " fill-opacity="1" fill-rule="nonzero"/><path fill="#fe2860" d="M 245.734375 256.421875 C 261.304688 256.691406 261.300781 279.855469 245.734375 280.121094 C 230.164062 279.855469 230.167969 256.691406 245.734375 256.421875 Z M 245.734375 256.421875 " fill-opacity="0.2" fill-rule="nonzero"/><path fill="#fe2860" d="M 245.734375 276.683594 C 234.683594 276.484375 234.6875 260.058594 245.734375 259.859375 C 256.789062 260.058594 256.78125 276.484375 245.734375 276.683594 Z M 245.734375 276.683594 " fill-opacity="0.4" fill-rule="nonzero"/><path fill="#fe2860" d="M 245.734375 273.242188 C 239.234375 273.210938 239.234375 263.328125 245.734375 263.292969 C 252.234375 263.324219 252.234375 273.207031 245.734375 273.242188 Z M 245.734375 273.242188 " fill-opacity="0.6" fill-rule="nonzero"/><path fill="#ffffff" d="M 245.734375 269.804688 C 243.746094 269.832031 243.746094 266.703125 245.734375 266.730469 C 247.726562 266.703125 247.726562 269.832031 245.734375 269.804688 Z M 245.734375 269.804688 " fill-opacity="1" fill-rule="nonzero"/><path fill="#fe2860" d="M 218.640625 241.234375 C 226.097656 241.265625 226.097656 252.613281 218.640625 252.644531 C 211.1875 252.613281 211.1875 241.265625 218.640625 241.234375 Z M 218.640625 241.234375 " fill-opacity="0.2" fill-rule="nonzero"/><path fill="#fe2860" d="M 218.640625 250.988281 C 213.394531 251.058594 213.394531 242.820312 218.640625 242.890625 C 223.890625 242.820312 223.890625 251.058594 218.640625 250.988281 Z M 218.640625 250.988281 " fill-opacity="0.4" fill-rule="nonzero"/><path fill="#fe2860" d="M 218.640625 249.332031 C 215.539062 249.375 215.535156 244.5 218.640625 244.542969 C 221.746094 244.5 221.746094 249.375 218.640625 249.332031 Z M 218.640625 249.332031 " fill-opacity="0.6" fill-rule="nonzero"/><path fill="#ffffff" d="M 218.640625 247.675781 C 217.683594 247.6875 217.6875 246.183594 218.640625 246.195312 C 219.601562 246.183594 219.597656 247.683594 218.640625 247.675781 Z M 218.640625 247.675781 " fill-opacity="1" fill-rule="nonzero"/></svg>