<svg width="560" height="476" viewBox="0 0 560 476" fill="none" xmlns="http://www.w3.org/2000/svg">
<path d="M545.103 419.087L308.559 18.5719C308.147 17.8722 307.708 17.186 307.253 16.5132C306.794 15.8404 306.314 15.1811 305.811 14.542C305.312 13.8995 304.788 13.2738 304.245 12.6649C303.705 12.0594 303.141 11.4674 302.564 10.8989C301.983 10.3271 301.382 9.77538 300.768 9.24053C300.15 8.70904 299.515 8.19773 298.867 7.70324C298.216 7.21212 297.551 6.74118 296.872 6.29378C296.19 5.84639 295.495 5.41918 294.789 5.01552C294.08 4.61185 293.358 4.23174 292.625 3.87517C291.893 3.5186 291.15 3.18558 290.394 2.8761C289.638 2.56662 288.875 2.2807 288.102 2.02168C287.329 1.76266 286.549 1.53056 285.759 1.31863C284.969 1.11007 284.176 0.928423 283.376 0.770322C282.576 0.612221 281.769 0.48103 280.962 0.37675C280.152 0.27247 279.342 0.191737 278.525 0.137915C277.711 0.0874573 276.898 0.0605469 276.081 0.0605469C275.264 0.0605469 274.45 0.0874573 273.637 0.137915C272.823 0.191737 272.01 0.27247 271.199 0.37675C270.393 0.48103 269.586 0.612221 268.786 0.770322C267.986 0.928423 267.192 1.11007 266.402 1.31863C265.616 1.53056 264.833 1.76266 264.06 2.02168C263.287 2.2807 262.524 2.56662 261.768 2.8761C261.015 3.18558 260.269 3.5186 259.536 3.87517C258.804 4.23174 258.081 4.61185 257.376 5.01552C256.667 5.41918 255.971 5.84639 255.289 6.29378C254.611 6.74118 253.946 7.21212 253.294 7.70324C252.646 8.19773 252.012 8.70904 251.397 9.24053C250.779 9.77538 250.182 10.3271 249.601 10.8989C249.021 11.4674 248.457 12.0594 247.917 12.6649C247.373 13.2738 246.853 13.8995 246.35 14.542C245.851 15.1811 245.368 15.8404 244.912 16.5132C244.453 17.186 244.018 17.8722 243.602 18.5719L7.0689 419.087C6.22833 420.506 5.48566 421.976 4.84089 423.493C4.19612 425.011 3.65262 426.565 3.21039 428.156C2.77154 429.744 2.43734 431.355 2.20779 432.986C1.98161 434.621 1.86346 436.263 1.84996 437.911C1.83983 439.559 1.93773 441.201 2.14365 442.836C2.34957 444.474 2.66014 446.089 3.08211 447.683C3.50071 449.277 4.02058 450.838 4.64847 452.366C5.27299 453.889 5.9954 455.369 6.81572 456.802C7.63603 458.232 8.54749 459.605 9.55009 460.916C10.5527 462.228 11.6363 463.47 12.801 464.637C13.9656 465.808 15.2045 466.897 16.5143 467.903C17.8241 468.909 19.1947 469.827 20.6226 470.655C22.0539 471.482 23.5325 472.212 25.0618 472.845C26.5876 473.48 28.1506 474.009 29.7473 474.439C31.3441 474.866 32.9611 475.189 34.6017 475.405C36.2423 475.62 37.8897 475.728 39.5438 475.728H512.631C541.778 475.728 559.899 444.131 545.103 419.087ZM46.8693 435.425L273.201 58.2554L499.543 435.425H46.8693Z" fill="url(#paint0_linear_66_235)"/>
<path d="M245.405 380.88C245.405 363.97 257.19 351.756 273.201 351.756C290.164 351.756 301.007 363.97 301.007 380.88C301.007 397.326 290.164 410.001 273.201 410.001C256.714 410.001 245.405 397.326 245.405 380.88ZM257.332 328.747L245.844 169.717C245.273 161.809 257.774 155.293 273.211 155.293C288.639 155.293 301.163 161.809 300.592 169.717L289.091 328.747C288.696 334.146 281.728 338.401 273.201 338.401C264.671 338.401 257.703 334.146 257.322 328.747H257.332Z" fill="url(#paint1_linear_66_235)"/>
<defs>
<linearGradient id="paint0_linear_66_235" x1="276.111" y1="0.0605469" x2="276.111" y2="475.728" gradientUnits="userSpaceOnUse">
<stop stop-color="#39ABF4"/>
<stop offset="1" stop-color="#030410"/>
</linearGradient>
<linearGradient id="paint1_linear_66_235" x1="273.206" y1="155.293" x2="273.206" y2="410.001" gradientUnits="userSpaceOnUse">
<stop stop-color="#39ABF4"/>
<stop offset="1" stop-color="#030410"/>
</linearGradient>
</defs>
</svg>
