<svg width="40" height="40" viewBox="0 0 40 40" fill="none" xmlns="http://www.w3.org/2000/svg">
<rect width="40" height="40" rx="20" fill="#32A3E5"/>
<path d="M10.5 25C9.80143 21.7033 9.80143 18.2967 10.5 15C10.5918 14.6652 10.7691 14.3601 11.0146 14.1146C11.2601 13.8691 11.5652 13.6918 11.9 13.6C17.2635 12.7115 22.7366 12.7115 28.1 13.6C28.4348 13.6918 28.7399 13.8691 28.9854 14.1146C29.2309 14.3601 29.4082 14.6652 29.5 15C30.1986 18.2967 30.1986 21.7033 29.5 25C29.4082 25.3348 29.2309 25.6399 28.9854 25.8854C28.7399 26.1309 28.4348 26.3082 28.1 26.4C22.7366 27.2887 17.2634 27.2887 11.9 26.4C11.5652 26.3082 11.2601 26.1309 11.0146 25.8854C10.7691 25.6399 10.5918 25.3348 10.5 25Z" stroke="white" stroke-width="2" stroke-linecap="round" stroke-linejoin="round"/>
<path d="M18 23L23 20L18 17V23Z" stroke="white" stroke-width="2" stroke-linecap="round" stroke-linejoin="round"/>
</svg>
